<?xml version="1.0" standalone="no"?><!DOCTYPE svg PUBLIC "-//W3C//DTD SVG 1.1//EN" "http://www.w3.org/Graphics/SVG/1.1/DTD/svg11.dtd"><svg t="1610421336341" class="icon" viewBox="0 0 1024 1024" version="1.1" xmlns="http://www.w3.org/2000/svg" p-id="4752" xmlns:xlink="http://www.w3.org/1999/xlink" width="200" height="200"><defs><style type="text/css"></style></defs><path d="M853.333333 426.666667h83.626667a42.666667 42.666667 0 0 1 40.490667 56.234666l-114.346667 341.333334a42.666667 42.666667 0 0 1-40.490667 29.098666H213.333333a85.333333 85.333333 0 0 1-85.333333-85.333333V256a85.333333 85.333333 0 0 1 85.333333-85.333333h131.669334a85.333333 85.333333 0 0 1 60.330666 25.002666L465.664 256H768a85.333333 85.333333 0 0 1 85.333333 85.333333v85.333334z m-85.333333 0V341.333333h-337.664l-85.333333-85.333333H213.333333v387.669333l77.482667-190.421333A42.666667 42.666667 0 0 1 330.368 426.666667H768zM254.848 768h537.088l85.76-256H359.04l-104.192 256z" p-id="4753"></path></svg>