<svg id="Capa_1" enable-background="new 0 0 512 512" height="512" viewBox="0 0 512 512" width="512" xmlns="http://www.w3.org/2000/svg"><g><path d="m467 0h-422c-24.813 0-45 20.187-45 45v242c0 24.813 20.187 45 45 45h151v23.379l-68.736 17.738c-50.791 13.108-86.264 58.898-86.264 111.353v12.53c0 8.284 6.716 15 15 15h400c8.284 0 15-6.716 15-15v-12.53c0-52.455-35.473-98.245-86.264-111.353l-68.736-17.738v-23.379h151c24.813 0 45-20.187 45-45v-242c0-24.813-20.187-45-45-45zm-26.036 482h-49.964v-25c0-8.284-6.716-15-15-15s-15 6.716-15 15v25h-210v-25c0-8.284-6.716-15-15-15s-15 6.716-15 15v25h-49.964c1.086-37.731 26.983-70.353 63.725-79.834l71.036-18.331c13.255 13.239 31.062 20.665 50.203 20.665s36.948-7.426 50.204-20.665l71.036 18.331c36.741 9.481 62.638 42.103 63.724 79.834zm-154.964-120.427c-7.761 8.267-18.463 12.927-30 12.927s-22.239-4.66-30-12.927v-29.573h60zm196-74.573c0 8.271-6.729 15-15 15h-422c-8.271 0-15-6.729-15-15v-242c0-8.271 6.729-15 15-15h422c8.271 0 15 6.729 15 15z"/><path d="m141.886 200.916c-.028 0-.058 0-.086 0-6.785.038-13.934.066-19.933.078v-84.994c0-8.284-6.716-15-15-15s-15 6.716-15 15v99.916c0 7.307 5.265 13.55 12.466 14.784 1.08.186 1.794.309 12.96.309 5.387 0 13.209-.029 24.674-.093 8.284-.047 14.962-6.8 14.916-15.084-.046-8.256-6.752-14.916-14.997-14.916z"/><path d="m191.888 101c-8.284 0-15 6.716-15 15v100c0 8.284 6.716 15 15 15s15-6.716 15-15v-100c0-8.284-6.716-15-15-15z"/><path d="m405.133 131c8.284 0 15-6.716 15-15s-6.716-15-15-15h-42.136c-8.284 0-15 6.716-15 15v100c0 8.284 6.716 15 15 15h42.136c8.284 0 15-6.716 15-15s-6.716-15-15-15h-27.136v-20h24.029c8.284 0 15-6.716 15-15s-6.716-15-15-15h-24.029v-20z"/><path d="m317.725 101.948c-7.858-2.611-16.352 1.644-18.964 9.507l-20.818 62.665-21.882-63.039c-2.716-7.826-11.262-11.964-19.089-9.252-7.826 2.717-11.968 11.264-9.251 19.09l34.19 98.498c.012.034.023.067.036.102 2.444 6.88 8.969 11.481 16.261 11.481.04 0 .079 0 .118-.001 7.34-.05 13.859-4.753 16.221-11.702.011-.032.022-.065.033-.099l32.651-98.286c2.611-7.861-1.645-16.351-9.506-18.964z"/></g></svg>