<?xml version="1.0" encoding="iso-8859-1"?>
<!-- Generator: Adobe Illustrator 19.0.0, SVG Export Plug-In . SVG Version: 6.00 Build 0)  -->
<svg version="1.1" id="Capa_1" xmlns="http://www.w3.org/2000/svg" xmlns:xlink="http://www.w3.org/1999/xlink" x="0px" y="0px"
	 viewBox="0 0 469.333 469.333" style="enable-background:new 0 0 469.333 469.333;" xml:space="preserve">
<g>
	<g>
		<path d="M426.667,42.765h-384C19.103,42.765,0,61.868,0,85.432v256c0,23.564,19.103,42.667,42.667,42.667v-42.667v-256h384v256
			v42.667c23.564,0,42.667-19.102,42.667-42.667v-256C469.333,61.868,450.231,42.765,426.667,42.765z"/>
	</g>
</g>
<g>
	<g>
		<path d="M350.721,377.803l-95.114-111.585c-11.482-13.471-30.029-13.439-41.484,0l-95.114,111.585
			c-23.046,27.036-12.871,48.765,22.526,48.765h186.66C363.653,426.568,373.678,404.735,350.721,377.803z M169.874,383.901
			l64.991-76.245l64.991,76.245H169.874z"/>
	</g>
</g>
<g>
</g>
<g>
</g>
<g>
</g>
<g>
</g>
<g>
</g>
<g>
</g>
<g>
</g>
<g>
</g>
<g>
</g>
<g>
</g>
<g>
</g>
<g>
</g>
<g>
</g>
<g>
</g>
<g>
</g>
</svg>
