<?xml version="1.0" standalone="no"?><!DOCTYPE svg PUBLIC "-//W3C//DTD SVG 1.1//EN" "http://www.w3.org/Graphics/SVG/1.1/DTD/svg11.dtd"><svg t="1611112254827" class="icon" viewBox="0 0 1024 1024" version="1.1" xmlns="http://www.w3.org/2000/svg" p-id="2234" xmlns:xlink="http://www.w3.org/1999/xlink" width="200" height="200"><defs><style type="text/css"></style></defs><path d="M224.426667 369.92C216.405333 404.693333 213.333333 450.474667 213.333333 512c0 61.525333 3.072 107.306667 11.093334 142.08 7.850667 33.962667 19.712 54.570667 35.626666 68.778667 16.384 14.634667 41.472 26.453333 83.029334 34.218666 41.728 7.808 96.426667 10.922667 168.917333 10.922667 72.490667 0 127.146667-3.114667 168.917333-10.922667 41.557333-7.808 66.645333-19.584 83.029334-34.218666 15.914667-14.208 27.776-34.816 35.626666-68.778667 8.021333-34.773333 11.093333-80.554667 11.093334-142.08 0-61.525333-3.072-107.306667-11.093334-142.08-7.850667-33.962667-19.712-54.570667-35.626666-68.778667-16.384-14.634667-41.472-26.453333-83.029334-34.218666C639.146667 259.114667 584.490667 256 512 256c-72.490667 0-127.146667 3.114667-168.917333 10.922667-41.557333 7.808-66.645333 19.584-83.029334 34.218666-15.914667 14.208-27.776 34.816-35.626666 68.778667z m102.954666-186.88C377.088 173.781333 438.186667 170.666667 512 170.666667s134.912 3.072 184.618667 12.373333c49.877333 9.386667 91.818667 25.6 124.16 54.485333 32.853333 29.354667 51.498667 67.84 61.952 113.237334 10.24 44.544 13.269333 98.304 13.269333 161.237333s-2.986667 116.693333-13.269333 161.28c-10.453333 45.354667-29.056 83.84-61.909334 113.194667-32.384 28.928-74.325333 45.141333-124.202666 54.485333-49.706667 9.258667-110.805333 12.373333-184.618667 12.373333s-134.912-3.072-184.618667-12.373333c-49.877333-9.386667-91.818667-25.6-124.16-54.485333-32.853333-29.354667-51.498667-67.84-61.952-113.237334C131.029333 628.693333 128 574.933333 128 512s2.986667-116.693333 13.269333-161.28c10.453333-45.354667 29.056-83.84 61.909334-113.194667 32.384-28.928 74.325333-45.141333 124.202666-54.442666z m342.784 234.794667a42.666667 42.666667 0 0 1 0 60.330666l-155.562666 155.605334a64 64 0 0 1-90.538667 0l-70.229333-70.272a42.666667 42.666667 0 0 1 60.330666-60.330667L469.333333 558.336l140.501334-140.501333a42.666667 42.666667 0 0 1 60.330666 0z" p-id="2235"></path></svg>